<?xml version="1.0" encoding="UTF-8"?>
<!-- Generated by Pixelmator Pro 3.1.1 -->
<svg width="1138" height="255" viewBox="0 0 1138 255" xmlns="http://www.w3.org/2000/svg" xmlns:xlink="http://www.w3.org/1999/xlink">
    <path id="Shape" fill="#3f3e67" fill-rule="evenodd" stroke="none" d="M 132.5 254.360641 C 127.550003 254.608032 119.305473 254.418076 114.178841 253.938522 C 109.0522 253.458969 100.56234 251.92337 95.312492 250.526062 C 90.062645 249.128754 83.07209 246.896866 79.777931 245.566299 C 76.483772 244.235718 70.123627 241.036591 65.644279 238.457123 C 61.164925 235.877655 54.349998 231.391113 50.5 228.487061 C 46.650002 225.582993 40.276714 219.897888 36.337139 215.85347 C 32.397568 211.809067 26.654776 204.957825 23.575382 200.62851 C 20.495987 196.299194 16.179588 189.099213 13.983383 184.62851 C 11.787178 180.157837 8.89205 173.316315 7.549765 169.425125 C 6.207479 165.533936 4.15047 157.658936 2.978633 151.925125 C 1.475024 144.567932 0.833875 137.674316 0.799954 128.5 C 0.771517 120.809082 1.40705 111.769058 2.35614 106.364319 C 3.238479 101.339691 5.138128 93.464691 6.577583 88.864319 C 8.017037 84.263947 11.169646 76.529343 13.58338 71.676331 C 15.997112 66.823318 20.105684 59.623306 22.713539 55.676331 C 25.321392 51.729355 31.966795 44 37.481102 38.5 C 42.995407 33 51.080559 26.050049 55.448101 23.055664 C 59.815647 20.061279 67.014046 15.833237 71.444542 13.660019 C 75.875046 11.486786 82.440643 8.68013 86.034767 7.422989 C 89.628891 6.165848 96.54538 4.318878 101.404739 3.318634 C 107.947098 1.971954 114.719124 1.5 127.5 1.5 C 140.280869 1.5 147.052902 1.971954 153.595261 3.318634 C 158.45462 4.318878 165.371109 6.18161 168.965225 7.458008 C 172.559357 8.734421 178.425003 11.115479 182 12.749268 C 185.574997 14.383041 192.774994 18.566986 198 22.046921 C 203.644699 25.806366 211.558212 32.459869 217.5 38.442093 C 223 43.979523 229.684204 51.797424 232.35379 55.815231 C 235.023376 59.833023 238.966766 66.58075 241.116867 70.81015 C 243.266968 75.039566 246.372345 82.674393 248.017715 87.776443 C 249.663071 92.878494 251.73996 101.203491 252.633026 106.276443 C 253.597855 111.757172 254.240692 120.775269 254.217163 128.5 C 254.188995 137.748627 253.559052 144.508347 252.034164 151.925125 C 250.855286 157.658936 248.792526 165.533936 247.450241 169.425125 C 246.107956 173.316315 243.219421 180.144501 241.031296 184.598877 C 238.84317 189.053284 234.383926 196.431519 231.121857 200.994965 C 227.859802 205.558426 222.110397 212.426498 218.345413 216.257355 C 214.580444 220.088226 209.024994 225.135208 206 227.4729 C 202.975006 229.810577 197.350006 233.65564 193.5 236.017487 C 189.649994 238.379318 183.350006 241.798706 179.5 243.616135 C 175.649994 245.433548 168.484451 248.071442 163.576569 249.478104 C 158.668686 250.884766 151.69368 252.457596 148.076569 252.973267 C 144.459457 253.488937 137.449997 254.113251 132.5 254.360641 Z M 96.607269 184 C 128.930283 106.887497 138.524658 83.699051 138.781647 82.720108 C 139.215073 81.069046 138.281113 80.96048 125.87838 81.220108 L 112.507858 81.5 L 100.003929 114.153015 C 93.12677 132.112167 87.24115 146.646729 86.924782 146.452011 C 86.608406 146.257309 80.758408 131.458923 73.924782 113.566696 L 61.5 81.0354 L 48.25 81.0177 C 40.962502 81.007965 34.993683 81.337494 34.985966 81.75 C 34.978245 82.162506 44.537594 105.337494 56.228958 133.25 L 77.485992 184 L 87.046631 184 Z M 167 184 L 167 146 L 177.394669 146 C 185.119614 146 189.530472 145.462219 194.568558 143.906113 C 200.186478 142.170914 202.330582 140.829407 207.084991 136.075012 C 211.471069 131.688934 213.196396 129.077759 214.411102 124.987396 C 215.284988 122.044678 216 116.423828 216 112.496643 C 216 108.569443 215.312439 103.338409 214.472092 100.872131 C 213.63176 98.405853 211.573624 94.72525 209.898483 92.693008 C 208.223328 90.660767 204.867188 87.834396 202.440369 86.412186 C 200.013565 84.989975 195.659195 83.19577 192.763992 82.425049 C 189.007736 81.42511 181.127075 81.02034 165.25 81.011871 L 143 81 L 143 132.5 L 143 184 L 155 184 Z M 171.818497 127 C 167 127 167 127 167 113.354965 C 167 99.70993 167 99.70993 173.911194 100.289337 C 177.754791 100.611572 182.549789 101.75 184.714142 102.854156 C 186.854599 103.946136 189.144562 106.021851 189.802933 107.466843 C 190.461319 108.911835 190.998322 111.760437 190.996262 113.797058 C 190.994202 115.833679 190.115219 118.938828 189.042953 120.697388 C 187.575958 123.103333 185.79924 124.279114 181.865189 125.447388 C 178.989685 126.301331 174.468674 127 171.818497 127 Z"/>
    <path id="VDA-PROJECT" fill="#3f3e67" fill-rule="evenodd" stroke="none" d="M 830.693359 188.560547 C 824.106689 188.560547 818.115723 187.433029 812.720703 185.179688 C 807.325684 182.926346 802.683167 179.774323 798.792969 175.722656 C 794.902771 171.670975 791.900574 166.947754 789.789063 161.552734 C 787.677612 156.157715 786.623047 150.318512 786.623047 144.035156 C 786.623047 137.795135 787.733582 131.977051 789.955078 126.582031 C 792.176636 121.186996 795.278687 116.475327 799.263672 112.445313 C 803.248657 108.415283 807.923584 105.272873 813.287109 103.019531 C 818.650696 100.76619 824.453369 99.640625 830.693359 99.640625 C 837.039734 99.640625 842.888489 100.76619 848.240234 103.019531 C 853.591919 105.272873 858.251953 108.415283 862.220703 112.445313 C 866.189392 116.475327 869.264587 121.186996 871.449219 126.582031 C 873.63385 131.977051 874.726563 137.795135 874.726563 144.035156 C 874.726563 150.318512 873.658691 156.157715 871.521484 161.552734 C 869.384216 166.947754 866.345764 171.670975 862.408203 175.722656 C 858.470581 179.774323 853.818481 182.926346 848.451172 185.179688 C 843.083923 187.433029 837.165649 188.560547 830.693359 188.560547 Z M 896.242188 188.560547 C 892.278564 188.560547 888.823547 188.055389 885.878906 187.046875 C 882.934204 186.038361 880.592651 184.928101 878.853516 183.716797 C 877.114441 182.505493 876.040527 181.610168 875.630859 181.03125 L 882.917969 164.179688 C 883.445374 164.908234 884.185364 165.709442 885.138672 166.585938 C 886.092041 167.462433 887.265442 168.213531 888.658203 168.839844 C 890.050964 169.466156 891.616638 169.779297 893.357422 169.779297 C 895.331116 169.779297 897.103943 169.364319 898.675781 168.533203 C 900.247681 167.702087 901.498169 166.336121 902.425781 164.435547 C 903.353394 162.534973 903.816406 160.007462 903.816406 156.851563 L 903.816406 101.199219 L 923.257813 101.199219 L 923.257813 160.580078 C 923.257813 166.453796 922.158997 171.478455 919.962891 175.652344 C 917.766724 179.826233 914.647461 183.020569 910.603516 185.236328 C 906.559631 187.452087 901.772644 188.560547 896.242188 188.560547 Z M 1044.902344 188.560547 C 1038.575684 188.560547 1032.640381 187.450226 1027.095703 185.232422 C 1021.551025 183.014618 1016.660706 179.905014 1012.423828 175.900391 C 1008.186951 171.895767 1004.875671 167.201538 1002.488281 161.818359 C 1000.10083 156.435181 998.90625 150.572723 998.90625 144.230469 C 998.90625 137.888199 1000.097168 132.00267 1002.478516 126.576172 C 1004.859802 121.149658 1008.161499 116.424744 1012.382813 112.398438 C 1016.604126 108.372147 1021.498108 105.239471 1027.064453 103 C 1032.630737 100.760544 1038.575684 99.640625 1044.902344 99.640625 C 1051.662476 99.640625 1057.501587 100.528015 1062.419922 102.304688 C 1067.338257 104.081375 1070.809082 105.83696 1072.830078 107.570313 L 1064.515625 124.068359 C 1062.908203 122.92543 1060.466797 121.775085 1057.191406 120.615234 C 1053.916016 119.455383 1050.289063 118.875 1046.310547 118.875 C 1041.897949 118.875 1038.046997 119.560867 1034.759766 120.931641 C 1031.472412 122.302399 1028.725586 124.173416 1026.519531 126.544922 C 1024.313599 128.916412 1022.66748 131.605667 1021.580078 134.613281 C 1020.492676 137.620911 1019.949219 140.761444 1019.949219 144.035156 C 1019.949219 147.352203 1020.492676 150.525406 1021.580078 153.554688 C 1022.66748 156.583984 1024.313599 159.28476 1026.519531 161.65625 C 1028.725586 164.02774 1031.472412 165.898773 1034.759766 167.269531 C 1038.046997 168.640289 1041.897949 169.324219 1046.310547 169.324219 C 1050.289063 169.324219 1053.916016 168.742126 1057.191406 167.576172 C 1060.466797 166.410217 1062.908203 165.261597 1064.515625 164.130859 L 1072.830078 180.630859 C 1070.809082 182.364197 1067.338257 184.117859 1062.419922 185.894531 C 1057.501587 187.671204 1051.662476 188.560547 1044.902344 188.560547 Z M 461.568359 187 L 461.568359 101.199219 L 487.361328 101.199219 C 496.5047 101.199219 504.082245 103.031662 510.09375 106.693359 C 516.105225 110.355042 520.605774 115.412445 523.59375 121.869141 C 526.581726 128.325836 528.074219 135.715118 528.074219 144.035156 C 528.074219 152.398529 526.58374 159.808929 523.601563 166.265625 C 520.619324 172.722321 516.122803 177.79126 510.111328 181.474609 C 504.099823 185.157959 496.516205 187 487.361328 187 L 461.568359 187 Z M 527.140625 187 L 561.066406 101.199219 L 580.347656 101.199219 L 614.21875 187 L 593.505859 187 L 587.248047 169.757813 L 554.257813 169.757813 L 547.917969 187 L 527.140625 187 Z M 650.488281 187 L 650.488281 101.199219 L 681.664063 101.199219 C 687.161316 101.199219 692.125549 102.167465 696.554688 104.101563 C 700.983887 106.03566 704.509094 108.955215 707.132813 112.861328 C 709.756531 116.767441 711.068359 121.677536 711.068359 127.589844 C 711.068359 133.460175 709.756531 138.442093 707.132813 142.537109 C 704.509094 146.632111 700.983887 149.745743 696.554688 151.878906 C 692.125549 154.01207 687.161316 155.078125 681.664063 155.078125 L 669.900391 155.078125 L 669.900391 187 L 650.488281 187 Z M 719.234375 187 L 719.234375 101.199219 L 754.240234 101.199219 C 759.203979 101.199219 763.64093 102.240234 767.550781 104.322266 C 771.460632 106.404312 774.545288 109.400711 776.804688 113.310547 C 779.064148 117.220383 780.193359 121.901611 780.193359 127.353516 C 780.193359 132.774261 779.23114 137.199722 777.308594 140.630859 C 775.385986 144.061996 773.081055 146.633942 770.390625 148.347656 C 767.700256 150.061371 765.209106 151.092789 762.919922 151.439453 L 783.761719 187 L 761.933594 187 L 743.349609 152.927734 L 738.675781 152.927734 L 738.675781 187 L 719.234375 187 Z M 934.001953 187 L 934.001953 101.199219 L 988.791016 101.199219 L 988.791016 118.21875 L 953.376953 118.21875 L 953.376953 135.744141 L 988.453125 135.744141 L 988.453125 152.244141 L 953.376953 152.244141 L 953.376953 169.980469 L 988.791016 169.980469 L 988.791016 187 L 934.001953 187 Z M 1098.013672 187 L 1098.013672 118.21875 L 1077.591797 118.21875 L 1077.591797 101.199219 L 1137.865234 101.199219 L 1137.865234 118.21875 L 1117.443359 118.21875 L 1117.443359 187 L 1098.013672 187 Z M 830.693359 170.3125 C 835.439758 170.3125 839.598877 169.142746 843.171875 166.802734 C 846.744873 164.462723 849.531982 161.30304 851.535156 157.326172 C 853.53833 153.349304 854.541016 148.919647 854.541016 144.035156 C 854.541016 139.150665 853.53833 134.730591 851.535156 130.775391 C 849.531982 126.820206 846.744873 123.668182 843.171875 121.318359 C 839.598877 118.968536 835.439758 117.792969 830.693359 117.792969 C 825.989685 117.792969 821.84668 118.968536 818.267578 121.318359 C 814.688538 123.668182 811.891907 126.820206 809.876953 130.775391 C 807.861938 134.730591 806.855469 139.150665 806.855469 144.035156 C 806.855469 148.919647 807.861938 153.349304 809.876953 157.326172 C 811.891907 161.30304 814.688538 164.462723 818.267578 166.802734 C 821.84668 169.142746 825.989685 170.3125 830.693359 170.3125 Z M 480.943359 169.746094 L 485.636719 169.746094 C 490.52121 169.746094 494.570679 168.633972 497.785156 166.412109 C 500.999603 164.190247 503.412231 161.145874 505.025391 157.277344 C 506.63855 153.408813 507.450684 149.037048 507.462891 144.164063 C 507.474396 139.259247 506.685242 134.870377 505.09375 130.996094 C 503.502258 127.121811 501.085632 124.063828 497.84375 121.820313 C 494.601837 119.576782 490.533417 118.455078 485.636719 118.455078 L 480.943359 118.455078 L 480.943359 169.746094 Z M 560.705078 152.738281 L 580.820313 152.738281 L 570.851563 124.605469 L 570.65625 124.605469 L 560.705078 152.738281 Z M 669.900391 139.714844 L 676.275391 139.714844 C 678.903137 139.714844 681.275391 139.334595 683.390625 138.574219 C 685.505859 137.813843 687.188538 136.57486 688.439453 134.857422 C 689.690369 133.139984 690.314453 130.871597 690.314453 128.048828 C 690.314453 125.202347 689.690369 122.943481 688.439453 121.273438 C 687.188538 119.603409 685.505859 118.400665 683.390625 117.666016 C 681.275391 116.931381 678.903137 116.564453 676.275391 116.564453 L 669.900391 116.564453 L 669.900391 139.714844 Z M 738.675781 139.478516 L 747.267578 139.478516 C 750.710571 139.478516 753.734192 138.635162 756.337891 136.949219 C 758.94165 135.263275 760.244141 132.27095 760.244141 127.96875 C 760.244141 123.667221 758.964905 120.689453 756.408203 119.039063 C 753.851501 117.388657 750.851196 116.564453 747.408203 116.564453 L 738.675781 116.564453 L 738.675781 139.478516 Z M 403.953583 101.199997 L 423.258575 101.199997 L 457.123566 187 L 436.38858 187 L 430.14856 169.774994 L 397.128571 169.774994 L 390.823578 187 L 370.02356 187 Z M 403.628571 152.744995 L 423.713562 152.744995 L 413.768585 124.600006 L 413.573578 124.600006 Z M 392.383575 93.009995 L 392.383575 80.660004 L 434.76358 80.660004 L 434.76358 93.009995 Z M 338.593231 187 L 316.646576 187 L 286.096588 101.199997 L 307.995483 101.199997 L 327.619385 162.233978 L 347.278839 101.199997 L 369.178772 101.199997 Z"/>
</svg>
